<svg width="66" height="66" viewBox="0 0 66 66" fill="none" xmlns="http://www.w3.org/2000/svg">
<circle cx="33" cy="33" r="32.5" fill="white" stroke="#D8D8D8"/>
<path d="M42.2808 17.3501H23.0192C21.4228 17.3501 19.8918 17.9843 18.763 19.1131C17.6342 20.2419 17 21.7729 17 23.3693V42.6309C17 44.2273 17.6342 45.7583 18.763 46.8871C19.8918 48.0159 21.4228 48.6501 23.0192 48.6501H32.65C32.9693 48.6501 33.2755 48.5233 33.5012 48.2975C33.727 48.0717 33.8538 47.7655 33.8538 47.4463V37.8155C33.8538 37.4962 33.727 37.19 33.5012 36.9642C33.2755 36.7385 32.9693 36.6116 32.65 36.6116H31.4462V34.2039H32.65C32.9693 34.2039 33.2755 34.0771 33.5012 33.8513C33.727 33.6256 33.8538 33.3194 33.8538 33.0001V28.7866C33.8538 27.9884 34.1709 27.2229 34.7353 26.6585C35.2998 26.0941 36.0653 25.777 36.8635 25.777H39.8731V28.1847H38.6692C38.0307 28.1847 37.4183 28.4384 36.9667 28.8899C36.5152 29.3414 36.2615 29.9538 36.2615 30.5924V33.0001C36.2615 33.3194 36.3884 33.6256 36.6141 33.8513C36.8399 34.0771 37.1461 34.2039 37.4654 34.2039H39.536L38.9341 36.6116H37.4654C37.1461 36.6116 36.8399 36.7385 36.6141 36.9642C36.3884 37.19 36.2615 37.4962 36.2615 37.8155V42.6309C36.2615 42.9501 36.3884 43.2563 36.6141 43.4821C36.8399 43.7079 37.1461 43.8347 37.4654 43.8347C37.7847 43.8347 38.0909 43.7079 38.3166 43.4821C38.5424 43.2563 38.6692 42.9501 38.6692 42.6309V39.0193H39.8731C40.1481 39.0273 40.4175 38.9409 40.6366 38.7745C40.8556 38.608 41.011 38.3715 41.0769 38.1044L42.2808 33.289C42.3259 33.1113 42.3298 32.9257 42.2922 32.7463C42.2547 32.5669 42.1766 32.3984 42.0641 32.2537C41.947 32.1053 41.7966 31.9866 41.6251 31.9071C41.4536 31.8276 41.2658 31.7897 41.0769 31.7963H38.6692V30.5924H41.0769C41.3962 30.5924 41.7024 30.4656 41.9282 30.2398C42.1539 30.014 42.2808 29.7078 42.2808 29.3886V24.5732C42.2808 24.2539 42.1539 23.9477 41.9282 23.7219C41.7024 23.4962 41.3962 23.3693 41.0769 23.3693H36.8635C35.4277 23.3725 34.0516 23.9443 33.0364 24.9595C32.0211 25.9748 31.4493 27.3509 31.4462 28.7866V31.7963H30.2423C29.923 31.7963 29.6168 31.9231 29.3911 32.1488C29.1653 32.3746 29.0385 32.6808 29.0385 33.0001V37.8155C29.0385 38.1348 29.1653 38.441 29.3911 38.6667C29.6168 38.8925 29.923 39.0193 30.2423 39.0193H31.4462V46.2424H23.0192C22.0614 46.2424 21.1428 45.8619 20.4655 45.1846C19.7882 44.5073 19.4077 43.5887 19.4077 42.6309V23.3693C19.4077 22.4115 19.7882 21.4929 20.4655 20.8156C21.1428 20.1383 22.0614 19.7578 23.0192 19.7578H42.2808C43.2386 19.7578 44.1572 20.1383 44.8345 20.8156C45.5118 21.4929 45.8923 22.4115 45.8923 23.3693V42.6309C45.8923 43.5887 45.5118 44.5073 44.8345 45.1846C44.1572 45.8619 43.2386 46.2424 42.2808 46.2424H37.4654C37.1461 46.2424 36.8399 46.3692 36.6141 46.595C36.3884 46.8208 36.2615 47.127 36.2615 47.4463C36.2615 47.7655 36.3884 48.0717 36.6141 48.2975C36.8399 48.5233 37.1461 48.6501 37.4654 48.6501H42.2808C43.8772 48.6501 45.4082 48.0159 46.537 46.8871C47.6658 45.7583 48.3 44.2273 48.3 42.6309V23.3693C48.3 21.7729 47.6658 20.2419 46.537 19.1131C45.4082 17.9843 43.8772 17.3501 42.2808 17.3501Z" fill="#EA7F1B"/>
<path fill-rule="evenodd" clip-rule="evenodd" d="M30.9462 37.1116V33.7039H32.65C32.8367 33.7039 33.0157 33.6298 33.1477 33.4978C33.2797 33.3658 33.3538 33.1868 33.3538 33.0001V28.7866C33.3538 27.8558 33.7236 26.9631 34.3818 26.305C35.04 25.6468 35.9327 25.277 36.8635 25.277H40.3731V28.6847H38.6692C38.1633 28.6847 37.678 28.8857 37.3203 29.2435C36.9625 29.6012 36.7615 30.0865 36.7615 30.5924V33.0001C36.7615 33.1868 36.8357 33.3658 36.9677 33.4978C37.0997 33.6298 37.2787 33.7039 37.4654 33.7039H40.1764L39.3245 37.1116H37.4654C37.2787 37.1116 37.0997 37.1858 36.9677 37.3178L36.6141 36.9642C36.8399 36.7385 37.1461 36.6116 37.4654 36.6116H38.9341L39.536 34.2039H37.4654C37.1461 34.2039 36.8399 34.0771 36.6141 33.8513C36.3884 33.6256 36.2615 33.3194 36.2615 33.0001V30.5924C36.2615 29.9538 36.5152 29.3414 36.9667 28.8899C37.4183 28.4384 38.0307 28.1847 38.6692 28.1847H39.8731V25.777H36.8635C36.0653 25.777 35.2998 26.0941 34.7353 26.6585C34.1709 27.2229 33.8538 27.9884 33.8538 28.7866V33.0001C33.8538 33.3194 33.727 33.6256 33.5012 33.8513C33.2755 34.0771 32.9693 34.2039 32.65 34.2039H31.4462V36.6116H32.65C32.9693 36.6116 33.2755 36.7385 33.5012 36.9642C33.727 37.19 33.8538 37.4962 33.8538 37.8155V47.4463C33.8538 47.7655 33.727 48.0717 33.5012 48.2975C33.2755 48.5233 32.9693 48.6501 32.65 48.6501H23.0192C21.4228 48.6501 19.8918 48.0159 18.763 46.8871C17.6342 45.7583 17 44.2273 17 42.6309V23.3693C17 21.7729 17.6342 20.2419 18.763 19.1131C19.8918 17.9843 21.4228 17.3501 23.0192 17.3501H42.2808C43.8772 17.3501 45.4082 17.9843 46.537 19.1131C47.6658 20.2419 48.3 21.7729 48.3 23.3693V42.6309C48.3 44.2273 47.6658 45.7583 46.537 46.8871C45.4082 48.0159 43.8772 48.6501 42.2808 48.6501H37.4654C37.1461 48.6501 36.8399 48.5233 36.6141 48.2975C36.3884 48.0717 36.2615 47.7655 36.2615 47.4463C36.2615 47.127 36.3884 46.8208 36.6141 46.595C36.8399 46.3692 37.1461 46.2424 37.4654 46.2424H42.2808C43.2386 46.2424 44.1572 45.8619 44.8345 45.1846C45.5118 44.5073 45.8923 43.5887 45.8923 42.6309V23.3693C45.8923 22.4115 45.5118 21.4929 44.8345 20.8156C44.1572 20.1383 43.2386 19.7578 42.2808 19.7578H23.0192C22.0614 19.7578 21.1428 20.1383 20.4655 20.8156C19.7882 21.4929 19.4077 22.4115 19.4077 23.3693V42.6309C19.4077 43.5887 19.7882 44.5073 20.4655 45.1846C21.1428 45.8619 22.0614 46.2424 23.0192 46.2424H31.4462V39.0193H30.2423C29.923 39.0193 29.6168 38.8925 29.3911 38.6667C29.1653 38.441 29.0385 38.1348 29.0385 37.8155V33.0001C29.0385 32.6808 29.1653 32.3746 29.3911 32.1488C29.6168 31.9231 29.923 31.7963 30.2423 31.7963H31.4462V28.7866C31.4493 27.3509 32.0211 25.9748 33.0364 24.9595C34.0516 23.9443 35.4277 23.3725 36.8635 23.3693H41.0769C41.3962 23.3693 41.7024 23.4962 41.9282 23.7219C42.1539 23.9477 42.2808 24.2539 42.2808 24.5732V29.3886C42.2808 29.7078 42.1539 30.014 41.9282 30.2398C41.7024 30.4656 41.3962 30.5924 41.0769 30.5924H38.6692V31.7963H41.0769C41.2658 31.7897 41.4536 31.8276 41.6251 31.9071C41.7966 31.9866 41.947 32.1053 42.0641 32.2537C42.1766 32.3984 42.2547 32.5669 42.2922 32.7463C42.3298 32.9257 42.3259 33.1113 42.2808 33.289L41.0769 38.1044C41.011 38.3715 40.8556 38.608 40.6366 38.7745C40.4175 38.9409 40.1481 39.0273 39.8731 39.0193H38.6692V42.6309C38.6692 42.9501 38.5424 43.2563 38.3166 43.4821C38.0909 43.7079 37.7847 43.8347 37.4654 43.8347C37.1461 43.8347 36.8399 43.7079 36.6141 43.4821C36.3884 43.2563 36.2615 42.9501 36.2615 42.6309V37.8155C36.2615 37.4962 36.3884 37.19 36.6141 36.9642L36.9677 37.3178C36.8357 37.4498 36.7615 37.6288 36.7615 37.8155V42.6309C36.7615 42.8175 36.8357 42.9966 36.9677 43.1286C37.0997 43.2606 37.2787 43.3347 37.4654 43.3347C37.6521 43.3347 37.8311 43.2606 37.9631 43.1286C38.0951 42.9966 38.1692 42.8175 38.1692 42.6309V38.5193H39.8804L39.8876 38.5195C40.0484 38.5242 40.206 38.4737 40.334 38.3764C40.4621 38.279 40.5529 38.1408 40.5915 37.9846L40.5918 37.9831L41.7961 33.166C41.8225 33.0622 41.8248 32.9536 41.8028 32.8487C41.781 32.7444 41.7357 32.6464 41.6705 32.5621C41.6022 32.4759 41.5146 32.407 41.4149 32.3608C41.3146 32.3143 41.2048 32.2921 41.0944 32.2959L41.0857 32.2963H38.1692V30.0924H41.0769C41.2636 30.0924 41.4426 30.0182 41.5746 29.8863C41.7066 29.7543 41.7808 29.5752 41.7808 29.3886V24.5732C41.7808 24.3865 41.7066 24.2075 41.5746 24.0755C41.4426 23.9435 41.2636 23.8693 41.0769 23.8693H36.8639C35.5606 23.8724 34.3115 24.3915 33.3899 25.3131C32.4683 26.2347 31.9492 27.4839 31.9462 28.7873C31.9462 28.7875 31.9462 28.7872 31.9462 28.7873V32.2963H30.2423C30.0556 32.2963 29.8766 32.3704 29.7446 32.5024C29.6126 32.6344 29.5385 32.8134 29.5385 33.0001V37.8155C29.5385 38.0022 29.6126 38.1812 29.7446 38.3132C29.8766 38.4452 30.0556 38.5193 30.2423 38.5193H31.9462V46.7424H23.0192C21.9288 46.7424 20.883 46.3092 20.1119 45.5382C19.3409 44.7671 18.9077 43.7213 18.9077 42.6309V23.3693C18.9077 22.2789 19.3409 21.2331 20.1119 20.462C20.883 19.691 21.9288 19.2578 23.0192 19.2578H42.2808C43.3712 19.2578 44.417 19.691 45.1881 20.462C45.9591 21.2331 46.3923 22.2789 46.3923 23.3693V42.6309C46.3923 43.7213 45.9591 44.7671 45.1881 45.5382C44.417 46.3092 43.3712 46.7424 42.2808 46.7424H37.4654C37.2787 46.7424 37.0997 46.8166 36.9677 46.9486C36.8357 47.0806 36.7615 47.2596 36.7615 47.4463C36.7615 47.6329 36.8357 47.8119 36.9677 47.9439C37.0997 48.0759 37.2787 48.1501 37.4654 48.1501H42.2808C43.7446 48.1501 45.1484 47.5686 46.1835 46.5336C47.2185 45.4985 47.8 44.0947 47.8 42.6309V23.3693C47.8 21.9055 47.2185 20.5017 46.1835 19.4666C45.1484 18.4316 43.7446 17.8501 42.2808 17.8501H23.0192C21.5554 17.8501 20.1516 18.4316 19.1165 19.4666C18.0815 20.5017 17.5 21.9055 17.5 23.3693V42.6309C17.5 44.0947 18.0815 45.4985 19.1165 46.5336C20.1516 47.5686 21.5554 48.1501 23.0192 48.1501H32.65C32.8367 48.1501 33.0157 48.0759 33.1477 47.9439C33.2797 47.8119 33.3538 47.6329 33.3538 47.4463V37.8155C33.3538 37.6288 33.2797 37.4498 33.1477 37.3178C33.0157 37.1858 32.8367 37.1116 32.65 37.1116H30.9462Z" fill="white"/>
</svg>
