<svg width="66" height="66" viewBox="0 0 66 66" fill="none" xmlns="http://www.w3.org/2000/svg">
<circle cx="33" cy="33" r="32.5" fill="white" stroke="#D8D8D8"/>
<path d="M39.0236 29.6562L39.0253 29.6555C39.1483 29.607 39.2797 29.5833 39.4118 29.5857C39.544 29.5882 39.6744 29.6168 39.7955 29.6699C39.9166 29.723 40.026 29.7995 40.1174 29.8951C40.2087 29.9906 40.2803 30.1033 40.3279 30.2267L40.3279 30.2267C40.8352 31.5402 40.9498 32.9729 40.6575 34.3504C40.3653 35.7278 39.6789 36.9906 38.6819 37.9849L38.6817 37.9851C37.3201 39.345 35.4744 40.1088 33.5499 40.1088C31.6255 40.1088 29.7799 39.345 28.4182 37.9852C27.2458 36.8101 26.5112 35.2688 26.337 33.618C26.1628 31.9671 26.5595 30.3063 27.461 28.9123C28.3625 27.5183 29.7143 26.4753 31.2914 25.957C32.8684 25.4386 34.5753 25.4762 36.1279 26.0635C36.3764 26.1578 36.5773 26.347 36.6862 26.5894C36.7952 26.8318 36.8035 27.1076 36.7091 27.3561C36.6148 27.6046 36.4256 27.8054 36.1832 27.9144C35.9408 28.0233 35.6651 28.0316 35.4167 27.9373C34.2911 27.5091 33.0526 27.4802 31.9083 27.8555C30.764 28.2309 29.7832 28.9876 29.1299 29.9993C28.4766 31.011 28.1904 32.2163 28.3191 33.4137C28.4478 34.6111 28.9837 35.728 29.8371 36.5777C30.6905 37.4274 31.8097 37.9584 33.0077 38.0819C34.2056 38.2055 35.4096 37.914 36.4185 37.2563C37.4273 36.5986 38.1798 35.6146 38.5502 34.4686C38.9205 33.3227 38.8863 32.0844 38.4532 30.9607L38.4532 30.9607L38.4524 30.9588C38.4039 30.8358 38.3802 30.7044 38.3826 30.5723C38.3851 30.4401 38.4137 30.3097 38.4668 30.1886L38.2378 30.0882L38.4668 30.1886C38.5199 30.0675 38.5964 29.9581 38.692 29.8668C38.7875 29.7754 38.9002 29.7038 39.0236 29.6562ZM40.9021 34.4022C41.2044 32.9774 41.0859 31.4954 40.5611 30.1366L28.2414 38.1619C29.65 39.5687 31.5592 40.3588 33.5499 40.3588C35.5406 40.3588 37.4499 39.5687 38.8584 38.1619C39.8897 37.1333 40.5998 35.8271 40.9021 34.4022Z" fill="#EA7F1B" stroke="white" stroke-width="0.5"/>
<path d="M43.128 24.0142C43.128 24.5676 42.6794 25.0162 42.126 25.0162C41.5726 25.0162 41.124 24.5676 41.124 24.0142C41.124 23.4608 41.5726 23.0122 42.126 23.0122C42.6794 23.0122 43.128 23.4608 43.128 24.0142Z" fill="#EA7F1B" stroke="white" stroke-width="0.5"/>
<path d="M48.1361 24.0144L48.1361 24.0245L48.1369 24.0347C48.6116 29.8876 48.6116 35.7694 48.1369 41.6224L48.1362 41.6305L48.1361 41.6386C48.1111 43.2055 47.4751 44.7006 46.3636 45.8054C45.2522 46.9101 43.7532 47.537 42.1862 47.5525L42.1752 47.5526L42.1642 47.5536C39.243 47.8408 36.3215 47.9781 33.3621 47.9781C30.4032 47.9781 27.4438 47.8283 24.4961 47.5535L24.487 47.5527L24.4779 47.5525C22.9048 47.521 21.4069 46.874 20.3056 45.7503C19.2044 44.6266 18.5877 43.1158 18.5881 41.5425L18.5881 41.5329L18.5873 41.5233C18.1376 35.6686 18.1376 29.7881 18.5873 23.9334L18.5879 23.9259L18.588 23.9183C18.6133 22.3411 19.2576 20.837 20.382 19.7306C21.5063 18.6242 23.0206 18.0042 24.598 18.0044L24.6095 18.0044L24.6209 18.0034C30.4778 17.4657 36.3716 17.4657 42.2284 18.0034L42.2373 18.0042L42.2463 18.0044C43.8193 18.0359 45.3173 18.6829 46.4185 19.8066C47.5197 20.9303 48.1364 22.4411 48.1361 24.0144ZM44.9587 44.3751C45.7076 43.6263 46.1293 42.6115 46.132 41.5528C46.6077 35.7474 46.6078 29.9129 46.1323 24.1075C46.1446 23.5771 46.0515 23.0496 45.8583 22.5554C45.6633 22.057 45.3705 21.6027 44.9971 21.2193C44.6237 20.8359 44.1772 20.5312 43.6841 20.3233C43.1946 20.1168 42.669 20.0098 42.1378 20.0085C39.1709 19.733 36.2413 19.5994 33.3488 19.6078C30.4586 19.6162 27.5766 19.7496 24.703 20.0081C24.172 19.9942 23.6435 20.086 23.1483 20.2783C22.6483 20.4724 22.1924 20.7649 21.8076 21.1385C21.4227 21.5121 21.1169 21.9592 20.9081 22.4532C20.7005 22.9443 20.5931 23.4719 20.5921 24.0049C20.1539 29.8112 20.1539 35.6423 20.5918 41.4486C20.5794 41.9792 20.6725 42.5071 20.8659 43.0015C21.0608 43.4999 21.3536 43.9542 21.727 44.3376C22.1005 44.721 22.5469 45.0257 23.04 45.2336C23.5294 45.44 24.0548 45.547 24.5858 45.5484C30.3812 46.1118 36.2176 46.1118 42.013 45.5484H42.1261C43.1885 45.5484 44.2075 45.1264 44.9587 44.3751Z" fill="#EA7F1B" stroke="white" stroke-width="0.5"/>
</svg>
