<?xml version="1.0" encoding="utf-8"?>
<!-- Generator: Adobe Illustrator 27.0.0, SVG Export Plug-In . SVG Version: 6.00 Build 0)  -->
<svg version="1.1" id="圖層_1" xmlns="http://www.w3.org/2000/svg" xmlns:xlink="http://www.w3.org/1999/xlink" x="0px" y="0px"
	 viewBox="0 0 66 66" style="enable-background:new 0 0 66 66;" xml:space="preserve">
<style type="text/css">
	.st0{fill:#FFFFFF;stroke:#D8D8D8;}
	.st1{fill:#EA7F1B;}
	.st2{fill:#FFFFFF;}
</style>
<circle class="st0" cx="33" cy="33" r="32.5"/>
<g>
	<path class="st1" d="M39,29.7L39,29.7c0.1,0,0.3-0.1,0.4-0.1c0.1,0,0.3,0,0.4,0.1c0.1,0.1,0.2,0.1,0.3,0.2c0.1,0.1,0.2,0.2,0.2,0.3
		l0,0c0.5,1.3,0.6,2.7,0.3,4.1c-0.3,1.4-1,2.6-2,3.6l0,0c-1.4,1.4-3.2,2.1-5.1,2.1s-3.8-0.8-5.1-2.1c-1.2-1.2-1.9-2.7-2.1-4.4
		c-0.2-1.7,0.2-3.3,1.1-4.7c0.9-1.4,2.3-2.4,3.8-3c1.6-0.5,3.3-0.5,4.8,0.1c0.2,0.1,0.4,0.3,0.6,0.5c0.1,0.2,0.1,0.5,0,0.8
		c-0.1,0.2-0.3,0.4-0.5,0.6c-0.2,0.1-0.5,0.1-0.8,0c-1.1-0.4-2.4-0.5-3.5-0.1c-1.1,0.4-2.1,1.1-2.8,2.1c-0.7,1-0.9,2.2-0.8,3.4
		c0.1,1.2,0.7,2.3,1.5,3.2c0.9,0.8,2,1.4,3.2,1.5c1.2,0.1,2.4-0.2,3.4-0.8c1-0.7,1.8-1.6,2.1-2.8c0.4-1.1,0.3-2.4-0.1-3.5l0,0
		c0-0.1-0.1-0.3-0.1-0.4c0-0.1,0-0.3,0.1-0.4c0.1-0.1,0.1-0.2,0.2-0.3C38.8,29.8,38.9,29.7,39,29.7z M48.1,24L48.1,24L48.1,24
		c0.5,5.9,0.5,11.8,0,17.6l0,0l0,0c0,1.6-0.7,3.1-1.8,4.2c-1.1,1.1-2.6,1.7-4.2,1.7l0,0l0,0c-2.9,0.3-5.8,0.4-8.8,0.4
		c-3,0-5.9-0.1-8.9-0.4l0,0l0,0c-1.6,0-3.1-0.7-4.2-1.8c-1.1-1.1-1.7-2.6-1.7-4.2v0l0,0c-0.4-5.9-0.4-11.7,0-17.6l0,0l0,0
		c0-1.6,0.7-3.1,1.8-4.2c1.1-1.1,2.6-1.7,4.2-1.7h0l0,0c5.9-0.5,11.8-0.5,17.6,0l0,0l0,0c1.6,0,3.1,0.7,4.2,1.8
		C47.5,20.9,48.1,22.4,48.1,24z M43.1,24c0,0.6-0.4,1-1,1c-0.6,0-1-0.4-1-1s0.4-1,1-1C42.7,23,43.1,23.5,43.1,24z M45,44.4
		c0.7-0.7,1.2-1.8,1.2-2.8c0.5-5.8,0.5-11.6,0-17.4c0-0.5-0.1-1.1-0.3-1.6c-0.2-0.5-0.5-1-0.9-1.3c-0.4-0.4-0.8-0.7-1.3-0.9
		c-0.5-0.2-1-0.3-1.5-0.3c-3-0.3-5.9-0.4-8.8-0.4c-2.9,0-5.8,0.1-8.6,0.4c-0.5,0-1.1,0.1-1.6,0.3c-0.5,0.2-1,0.5-1.3,0.9
		c-0.4,0.4-0.7,0.8-0.9,1.3c-0.2,0.5-0.3,1-0.3,1.6c-0.4,5.8-0.4,11.6,0,17.4c0,0.5,0.1,1.1,0.3,1.6c0.2,0.5,0.5,1,0.9,1.3
		c0.4,0.4,0.8,0.7,1.3,0.9c0.5,0.2,1,0.3,1.5,0.3c5.8,0.6,11.6,0.6,17.4,0h0.1C43.2,45.5,44.2,45.1,45,44.4z"/>
	<path class="st2" d="M33.4,48.2c-2.9,0-5.9-0.1-8.9-0.4c-1.6,0-3.2-0.7-4.3-1.9s-1.8-2.7-1.8-4.4c-0.4-5.8-0.4-11.8,0-17.6
		c0-1.7,0.7-3.2,1.9-4.4c1.2-1.2,2.7-1.8,4.4-1.8c5.9-0.5,11.8-0.5,17.7,0c1.6,0,3.2,0.7,4.3,1.9c1.2,1.2,1.8,2.7,1.8,4.4v0
		c0.5,5.8,0.5,11.8,0,17.6c0,1.6-0.7,3.2-1.8,4.3c-1.2,1.2-2.7,1.8-4.4,1.8C39.3,48.1,36.4,48.2,33.4,48.2z M33.4,17.9
		c-2.9,0-5.9,0.1-8.8,0.4c-1.6,0-3,0.6-4.1,1.7c-1.1,1.1-1.7,2.5-1.7,4c-0.4,5.9-0.4,11.8,0,17.6c0,1.6,0.6,3,1.6,4.1
		c1.1,1.1,2.5,1.7,4,1.7c3,0.3,6,0.4,8.9,0.4c3,0,5.9-0.1,8.8-0.4c1.6,0,3-0.6,4-1.7c1.1-1.1,1.7-2.5,1.7-4c0.5-5.9,0.5-11.8,0-17.6
		l0,0c0-1.5-0.6-2.9-1.6-4c-1.1-1.1-2.5-1.7-4-1.7C39.3,18,36.4,17.9,33.4,17.9z M33.3,46.2c-2.9,0-5.8-0.1-8.7-0.4h0
		c-0.5,0-1.1-0.1-1.6-0.3c-0.5-0.2-1-0.5-1.4-1c-0.4-0.4-0.7-0.9-0.9-1.4c-0.2-0.5-0.3-1.1-0.3-1.6c-0.4-5.8-0.4-11.7,0-17.5
		c0-0.6,0.1-1.1,0.3-1.6c0.2-0.5,0.5-1,1-1.4s0.9-0.7,1.4-0.9c0.5-0.2,1.1-0.3,1.7-0.3c2.8-0.3,5.8-0.4,8.6-0.4
		c2.9,0,5.9,0.1,8.8,0.4c0.5,0,1.1,0.1,1.6,0.3c0.5,0.2,1,0.5,1.4,1c0.4,0.4,0.7,0.9,0.9,1.4c0.2,0.5,0.3,1.1,0.3,1.6
		c0.5,5.8,0.5,11.7,0,17.5c0,1.1-0.4,2.2-1.2,3l0,0c-0.8,0.8-1.9,1.2-3,1.2H42C39.1,46.1,36.2,46.2,33.3,46.2z M24.6,20.3
		c-0.5,0-0.9,0.1-1.4,0.3c-0.5,0.2-0.9,0.5-1.3,0.8c-0.4,0.4-0.6,0.8-0.8,1.2c-0.2,0.5-0.3,1-0.3,1.5c-0.4,5.8-0.4,11.6,0,17.4
		c0,0.5,0.1,1,0.3,1.5c0.2,0.5,0.5,0.9,0.8,1.3c0.4,0.4,0.8,0.6,1.2,0.8c0.5,0.2,0.9,0.3,1.4,0.3c5.8,0.6,11.6,0.6,17.4,0l0.1,0
		c1,0,1.9-0.4,2.7-1.1c0.7-0.7,1.1-1.6,1.1-2.6c0.5-5.8,0.5-11.6,0-17.4c0-0.5-0.1-1-0.3-1.5c-0.2-0.5-0.5-0.9-0.8-1.3
		c-0.4-0.4-0.8-0.6-1.2-0.8c-0.5-0.2-0.9-0.3-1.4-0.3c-3-0.3-5.9-0.4-8.8-0.4c-2.9,0-5.8,0.1-8.6,0.4C24.7,20.3,24.7,20.3,24.6,20.3
		z M33.5,40.4c-2,0-3.9-0.8-5.3-2.2c-1.2-1.2-2-2.8-2.2-4.5c-0.2-1.7,0.2-3.4,1.2-4.9c0.9-1.4,2.3-2.5,4-3.1c1.6-0.5,3.4-0.5,5,0.1
		c0.3,0.1,0.6,0.4,0.7,0.7c0.1,0.3,0.1,0.6,0,1c-0.1,0.3-0.4,0.6-0.7,0.7c-0.3,0.1-0.6,0.1-1,0c-1.1-0.4-2.3-0.4-3.3-0.1
		c-1.1,0.4-2,1.1-2.6,2s-0.9,2.1-0.8,3.3c0.1,1.1,0.6,2.2,1.4,3c0.8,0.8,1.9,1.3,3,1.4c1.1,0.1,2.3-0.2,3.2-0.8c1-0.6,1.7-1.6,2-2.7
		c0.4-1.1,0.3-2.3-0.1-3.3c-0.1-0.2-0.1-0.3-0.1-0.5c0-0.2,0-0.3,0.1-0.5c0.1-0.2,0.2-0.3,0.3-0.4c0.1-0.1,0.3-0.2,0.4-0.3l0,0
		c0.1-0.1,0.3-0.1,0.5-0.1c0.2,0,0.3,0,0.5,0.1c0.2,0.1,0.3,0.2,0.4,0.3c0.1,0.1,0.2,0.3,0.3,0.4c0.5,1.4,0.6,2.8,0.3,4.3
		c-0.3,1.4-1,2.7-2,3.8C37.4,39.6,35.6,40.4,33.5,40.4z M33.6,25.8c-0.7,0-1.5,0.1-2.2,0.3c-1.5,0.5-2.8,1.5-3.7,2.9
		c-0.9,1.3-1.3,3-1.1,4.5c0.2,1.6,0.9,3.1,2,4.2c1.3,1.3,3.1,2.1,5,2.1c1.9,0,3.6-0.7,5-2.1c1-1,1.6-2.2,1.9-3.5
		c0.3-1.3,0.2-2.7-0.3-4c0-0.1-0.1-0.2-0.2-0.2c-0.1-0.1-0.1-0.1-0.2-0.2c-0.1,0-0.2-0.1-0.3-0.1c-0.1,0-0.2,0-0.3,0.1L39,29.7
		l0.1,0.2c-0.1,0-0.2,0.1-0.2,0.2c-0.1,0.1-0.1,0.2-0.2,0.2c0,0.1-0.1,0.2-0.1,0.3c0,0.1,0,0.2,0.1,0.3c0.5,1.2,0.5,2.5,0.1,3.7
		c-0.4,1.2-1.2,2.2-2.2,2.9c-1.1,0.7-2.3,1-3.6,0.9c-1.2-0.1-2.4-0.7-3.3-1.6c-0.9-0.9-1.5-2.1-1.6-3.3c-0.1-1.2,0.2-2.5,0.8-3.6
		c0.7-1.1,1.7-1.9,2.9-2.2c1.2-0.4,2.5-0.4,3.7,0.1c0.2,0.1,0.4,0.1,0.6,0c0.2-0.1,0.3-0.2,0.4-0.4c0.1-0.2,0.1-0.4,0-0.6
		c-0.1-0.2-0.2-0.3-0.4-0.4C35.2,26,34.4,25.8,33.6,25.8z M42.1,25.3c-0.7,0-1.3-0.6-1.3-1.3s0.6-1.3,1.3-1.3s1.3,0.6,1.3,1.3
		S42.8,25.3,42.1,25.3z M42.1,23.3c-0.4,0-0.8,0.3-0.8,0.8s0.3,0.8,0.8,0.8s0.8-0.3,0.8-0.8S42.5,23.3,42.1,23.3z"/>
</g>
</svg>
