<svg width="66" height="66" viewBox="0 0 66 66" fill="none" xmlns="http://www.w3.org/2000/svg">
<circle cx="33" cy="33" r="32.5" fill="white" stroke="#D8D8D8"/>
<path d="M47.0526 31.2807V31.2781C47.0526 31.0647 47.1374 30.8601 47.2883 30.7091C47.4392 30.5582 47.6438 30.4735 47.8572 30.4735C48.0706 30.4735 48.2753 30.5582 48.4262 30.7091C48.5762 30.8592 48.6609 31.0624 48.6619 31.2744C48.641 31.9284 48.5617 32.5793 48.4248 33.2191L48.4193 33.245V33.2714V33.2717V33.2719V33.2722V33.2724V33.2727V33.2729V33.2732V33.2734V33.2737V33.2739V33.2742V33.2745V33.2747V33.275V33.2752V33.2755V33.2758V33.276V33.2763V33.2765V33.2768V33.2771V33.2773V33.2776V33.2779V33.2782V33.2784V33.2787V33.279V33.2792V33.2795V33.2798V33.2801V33.2803V33.2806V33.2809V33.2812V33.2815V33.2817V33.282V33.2823V33.2826V33.2829V33.2832V33.2834V33.2837V33.284V33.2843V33.2846V33.2849V33.2852V33.2854V33.2857V33.286V33.2863V33.2866V33.2869V33.2872V33.2875V33.2878V33.2881V33.2884V33.2887V33.289V33.2893V33.2896V33.2899V33.2902V33.2905V33.2908V33.2911V33.2914V33.2917V33.292V33.2923V33.2926V33.2929V33.2932V33.2935V33.2938V33.2941V33.2944V33.2947V33.295V33.2953V33.2956V33.296V33.2963V33.2966V33.2969V33.2972V33.2975V33.2978V33.2981V33.2985V33.2988V33.2991V33.2994V33.2997V33.3V33.3003V33.3007V33.301V33.3013V33.3016V33.3019V33.3022V33.3026V33.3029V33.3032V33.3035V33.3038V33.3042V33.3045V33.3048V33.3051V33.3054V33.3058V33.3061V33.3064V33.3067V33.307V33.3074V33.3077V33.308V33.3083V33.3087V33.309V33.3093V33.3096V33.31V33.3103V33.3106V33.3109V33.3113V33.3116V33.3119V33.3122V33.3126V33.3129V33.3132V33.3136V33.3139V33.3142V33.3145V33.3149V33.3152V33.3155V33.3158V33.3162V33.3165V33.3168V33.3172V33.3175V33.3178V33.3182V33.3185V33.3188V33.3191V33.3195V33.3198V33.3201V33.3205V33.3208V33.3211V33.3214V33.3218V33.3221V33.3224V33.3228V33.3231V33.3234V33.3237V33.3241V33.3244V33.3247V33.3251V33.3254V33.3257V33.3261V33.3264V33.3267V33.327V33.3274V33.3277V33.328V33.3284V33.3287V33.329V33.3293V33.3297V33.33V33.3303V33.3307V33.331V33.3313V33.3316V33.332V33.3323V33.3326V33.333V33.3333V33.3336V33.3339V33.3343V33.3346V33.3349V33.3352V33.3356V33.3359V33.3362V33.3365V33.3369V33.3372V33.3375V33.3378V33.3382V33.3385V33.3388V33.3391V33.3394V33.3398V33.3401V33.3404V33.3407V33.3411V33.3414V33.3417V33.342V33.3423V33.3427V33.343V33.3433V33.3436V33.3439V33.3443V33.3446V33.3449V33.3452V33.3455V33.3458V33.3461V33.3465V33.3468V33.3471V33.3474V33.3477V33.348V33.3483V33.3487V33.349V33.3493V33.3496V33.3499V33.3502V33.3505V33.3508V33.3511V33.3514V33.3518V33.3521V33.3524V33.3527V33.353V33.3533V33.3536V33.3539V33.3542V33.3545V33.3548V33.3551V33.3554V33.3557V33.356V33.3563V33.3566V33.3569V33.3572V33.3575V33.3578V33.3581V33.3584V33.3587V33.359V33.3593V33.3595V33.3598V33.3601V33.3604V33.3607V33.361V33.3613V33.3616V33.3619V33.3621V33.3624V33.3627V33.363V33.3633V33.3636V33.3638V33.3641V33.3644V33.3647V33.365V33.3652V33.3655V33.3658V33.3661V33.3664V33.3666V33.3669V33.3672V33.3674V33.3677V33.368V33.3683V33.3685V33.3688V33.3691V33.3693V33.3696V33.3699V33.3701V33.3704V33.3706V33.3709V33.3712V33.3714V33.3717V33.3719V33.3722V33.3724V33.3727V33.373V33.3732V33.3735V33.3737V33.374V33.3742V33.3745V33.3747V33.375V33.3752V33.3754V33.3757V33.3759V33.3762V33.3764V33.3766V33.3769V33.3771V33.3774V33.3776V33.3778V33.3781V33.3783V33.3784C48.2437 34.4866 47.8619 35.5521 47.2936 36.5197L47.2934 36.5196L47.2888 36.5283C46.4563 38.0839 45.3156 39.4534 43.9362 40.5535L43.9362 40.5534L43.9304 40.5583C40.4276 43.5294 36.545 46.0212 32.385 47.9683L32.3849 47.9682L32.3769 47.9723C32.2651 48.0295 32.1415 48.0599 32.0159 48.0608C31.8385 48.0599 31.6664 48.0005 31.5263 47.8918L31.5251 47.8909C31.4046 47.7985 31.3127 47.6739 31.2601 47.5316C31.2075 47.3894 31.1961 47.2353 31.2273 47.0869C31.2273 47.0867 31.2273 47.0865 31.2274 47.0862L31.8283 44.3139L31.8875 44.0405L31.6093 44.0122C23.9403 43.2307 18.25 37.7624 18.25 31.2781C18.25 24.2289 25.0268 18.4293 33.4507 18.4293V18.4294L33.4572 18.4292C35.9424 18.3644 38.4082 18.8829 40.6568 19.9431C42.904 21.0028 44.8718 22.5741 46.4024 24.5311C46.4636 24.616 46.5077 24.7119 46.5323 24.8136C46.5571 24.9166 46.5615 25.0235 46.545 25.1282C46.5286 25.2329 46.4917 25.3333 46.4364 25.4237C46.3811 25.5141 46.3086 25.5927 46.223 25.6551C46.1373 25.7175 46.0402 25.7624 45.9372 25.7873C45.8342 25.8121 45.7273 25.8165 45.6227 25.8C45.518 25.7836 45.4176 25.7467 45.3272 25.6914C45.2368 25.6362 45.1581 25.5636 45.0957 25.478L45.0959 25.4779L45.09 25.4704C43.7083 23.7177 41.9349 22.3133 39.9122 21.37C37.8907 20.4273 35.6764 19.9713 33.4469 20.0386C26.0076 20.0403 19.859 25.044 19.8804 31.2786C19.8807 37.0777 25.1362 41.8234 32.0154 42.4323L32.0154 42.4324L32.0226 42.4328C32.2525 42.4464 32.4767 42.5093 32.6801 42.6172C32.8835 42.7251 33.0613 42.8754 33.2015 43.058C33.3417 43.2406 33.441 43.4513 33.4927 43.6756C33.5444 43.9 33.5472 44.1328 33.5011 44.3584L33.5008 44.3595L33.3215 45.256L33.2208 45.7599L33.6794 45.5282C37.0134 43.8438 40.1311 41.762 42.9647 39.3281C44.1979 38.3495 45.2193 37.1303 45.9665 35.7446C46.4003 34.9844 46.702 34.1562 46.8587 33.2951L46.8644 33.2637L46.8621 33.2319C46.8582 33.1791 46.8578 33.1261 46.861 33.0732C46.9823 32.4833 47.0464 31.883 47.0526 31.2807Z" fill="#EA7F1B" stroke="white" stroke-width="0.5"/>
<path d="M24.4048 33.2401V33.4901H24.6548H26.7641C26.9776 33.4901 27.1822 33.5748 27.3331 33.7257C27.484 33.8766 27.5688 34.0813 27.5688 34.2947C27.5688 34.5081 27.484 34.7128 27.3331 34.8637C27.1822 35.0146 26.9776 35.0994 26.7641 35.0994H23.6002C23.3868 35.0994 23.1821 35.0146 23.0312 34.8637C22.8803 34.7128 22.7955 34.5081 22.7955 34.2947V29.0214C22.7955 28.808 22.8803 28.6034 23.0312 28.4525C23.1821 28.3016 23.3868 28.2168 23.6002 28.2168C23.8136 28.2168 24.0183 28.3016 24.1692 28.4525C24.3201 28.6034 24.4048 28.808 24.4048 29.0214V33.2401Z" fill="#EA7F1B" stroke="white" stroke-width="0.5"/>
<path d="M29.1234 34.2947V29.0214C29.1234 28.808 29.2082 28.6034 29.3591 28.4525C29.51 28.3016 29.7146 28.2168 29.928 28.2168C30.1414 28.2168 30.3461 28.3016 30.497 28.4525C30.6479 28.6034 30.7327 28.808 30.7327 29.0214V34.2947C30.7327 34.5081 30.6479 34.7128 30.497 34.8637C30.3461 35.0146 30.1414 35.0994 29.928 35.0994C29.7146 35.0994 29.51 35.0146 29.3591 34.8637C29.2082 34.7128 29.1234 34.5081 29.1234 34.2947Z" fill="#EA7F1B" stroke="white" stroke-width="0.5"/>
<path d="M32.7442 28.0301L32.8265 28.2662C32.9837 28.2114 33.154 28.2068 33.314 28.2529C33.474 28.299 33.6157 28.3936 33.7196 28.5237L33.7198 28.5239L36.0612 31.4453L36.5062 32.0006V31.289V29.0214C36.5062 28.808 36.591 28.6034 36.7419 28.4525C36.8928 28.3016 37.0975 28.2168 37.3109 28.2168C37.5243 28.2168 37.729 28.3016 37.8799 28.4525C38.0308 28.6034 38.1155 28.808 38.1155 29.0214V34.2942C38.1148 34.4603 38.0626 34.6222 37.9661 34.7575C37.8696 34.893 37.7335 34.9952 37.5764 35.0501L37.5764 35.0501L37.5736 35.0511C37.4887 35.0819 37.3993 35.0982 37.3091 35.0994C37.1892 35.0996 37.0708 35.0731 36.9624 35.0217C36.8541 34.9703 36.7586 34.8954 36.683 34.8024L34.3423 31.8712L33.8969 31.3135V32.0272V34.2947C33.8969 34.5081 33.8122 34.7128 33.6613 34.8637C33.5104 35.0146 33.3057 35.0994 33.0923 35.0994C32.8789 35.0994 32.6742 35.0146 32.5233 34.8637C32.3724 34.7128 32.2876 34.5081 32.2876 34.2947V29.022C32.2884 28.8558 32.3406 28.6939 32.437 28.5586C32.5336 28.4232 32.6697 28.321 32.8267 28.2661L32.7442 28.0301ZM32.7442 28.0301C32.9503 27.9583 33.1736 27.9522 33.3832 28.0127C33.5929 28.0731 33.7787 28.1971 33.9149 28.3676L36.0062 30.977L32.0376 29.0214C32.0385 28.8034 32.1069 28.591 32.2334 28.4135C32.36 28.236 32.5384 28.102 32.7442 28.0301Z" fill="#EA7F1B" stroke="white" stroke-width="0.5"/>
<path d="M41.2793 33.2401V33.4901H41.5293H43.6386C43.852 33.4901 44.0567 33.5748 44.2076 33.7257C44.3585 33.8766 44.4433 34.0813 44.4433 34.2947C44.4433 34.5081 44.3585 34.7128 44.2076 34.8637C44.0567 35.0146 43.852 35.0994 43.6386 35.0994H40.4747C40.2613 35.0994 40.0566 35.0146 39.9057 34.8637C39.7548 34.7128 39.67 34.5081 39.67 34.2947V29.0214C39.67 28.808 39.7548 28.6034 39.9057 28.4525C40.0566 28.3016 40.2613 28.2168 40.4747 28.2168H43.6386C43.852 28.2168 44.0567 28.3016 44.2076 28.4525C44.3585 28.6034 44.4433 28.808 44.4433 29.0214C44.4433 29.2349 44.3585 29.4395 44.2076 29.5904C44.0567 29.7413 43.852 29.8261 43.6386 29.8261H41.5293H41.2793V30.0761V30.6034V30.8534H41.5293H43.6386C43.852 30.8534 44.0567 30.9382 44.2076 31.0891C44.3585 31.24 44.4433 31.4447 44.4433 31.6581C44.4433 31.8715 44.3585 32.0762 44.2076 32.2271C44.0567 32.378 43.852 32.4627 43.6386 32.4627H41.5293H41.2793V32.7127V33.2401Z" fill="#EA7F1B" stroke="white" stroke-width="0.5"/>
</svg>
