<svg width="65" height="66" viewBox="0 0 65 66" fill="none" xmlns="http://www.w3.org/2000/svg">
<path d="M64.5 33C64.5 50.9565 50.1659 65.5 32.5 65.5C14.8341 65.5 0.5 50.9565 0.5 33C0.5 15.0435 14.8341 0.5 32.5 0.5C50.1659 0.5 64.5 15.0435 64.5 33Z" fill="white" stroke="#D8D8D8"/>
<path d="M50.0791 28.0657L50.079 28.0832L50.0815 28.1006C50.591 31.7322 50.591 35.4171 50.0815 39.0487L50.0793 39.0641L50.0791 39.0797C50.0538 40.7677 49.3663 42.3782 48.1647 43.564C46.9631 44.7498 45.3436 45.416 43.6555 45.419V45.4186L43.6425 45.4193C40.058 45.6111 36.4442 45.7069 32.8011 45.7069C29.1581 45.7069 25.5236 45.6069 21.8974 45.4068L21.8974 45.4065L21.8855 45.4064C20.1916 45.3937 18.5715 44.711 17.3794 43.5076C16.1872 42.3041 15.5198 40.6777 15.5231 38.9838L15.5231 38.971L15.5218 38.9583C15.1594 35.3449 15.1594 31.7042 15.5218 28.0908L15.5231 28.0783V28.0658C15.5231 24.4302 18.5707 21.1544 21.9462 21.1544V21.1547L21.9584 21.1541C29.1235 20.804 36.451 20.804 43.6657 21.179C45.4074 21.3019 47.0378 22.0806 48.228 23.3583C49.4188 24.6365 50.0803 26.3188 50.0791 28.0657ZM48.0732 38.9012L48.0751 38.886V38.8706V38.863C48.5658 35.3631 48.5653 31.8117 48.0734 28.3119C48.0693 28.2674 48.0694 28.2226 48.0738 28.1781L48.0751 28.1658V28.1535C48.0751 26.8652 47.5411 25.6217 46.7311 24.7003C45.9224 23.7806 44.8164 23.1584 43.6559 23.1584H43.599C40.016 22.9956 36.4084 22.9205 32.8011 22.9205C29.1918 22.9205 25.5823 22.9957 21.9975 23.1587L21.9899 23.159L21.9824 23.1598C20.752 23.2907 19.6144 23.8747 18.7909 24.7981C17.9673 25.7215 17.5168 26.9183 17.5271 28.1555L17.5272 28.1698L17.5289 28.184C17.5321 28.2095 17.5321 28.2352 17.5289 28.2606L17.5289 28.2606L17.5283 28.266C17.1698 31.8034 17.1693 35.368 17.5268 38.9055C17.5149 39.491 17.6185 40.0731 17.8317 40.6186C18.0469 41.169 18.3694 41.6711 18.7804 42.0957C19.1915 42.5203 19.6828 42.859 20.226 43.0919C20.7674 43.3241 21.3495 43.4466 21.9386 43.4525C29.1496 43.8281 36.3752 43.8281 43.5863 43.4526C44.17 43.4568 44.749 43.3463 45.2902 43.1273C45.8337 42.9073 46.3286 42.5822 46.7463 42.1707C47.164 41.7591 47.4964 41.2692 47.7244 40.7289C47.9524 40.1887 48.0716 39.6087 48.0751 39.0223L48.0751 39.0062L48.0732 38.9902C48.0695 38.9607 48.0695 38.9308 48.0732 38.9012Z" fill="#EA7F1B" stroke="white" stroke-width="0.5"/>
<path d="M29.7441 28.0748L29.7444 28.0749L38.6794 32.6801C38.8356 32.7687 38.965 32.8976 39.0543 33.0534C39.1443 33.2104 39.1901 33.3888 39.1868 33.5698L39.1867 33.5698L39.1867 33.5748C39.1871 33.7588 39.1368 33.9394 39.0414 34.0967C38.9459 34.254 38.809 34.382 38.6456 34.4666L38.6451 34.4669L29.7074 39.1235C29.7071 39.1237 29.7069 39.1238 29.7066 39.1239C29.5642 39.1967 29.4064 39.2344 29.2464 39.2338H29.2454C28.9797 39.2338 28.7248 39.1282 28.5369 38.9403C28.349 38.7524 28.2434 38.4975 28.2434 38.2318V33.5743C28.2434 33.3086 28.349 33.0537 28.5369 32.8658C28.7248 32.6779 28.9797 32.5723 29.2454 32.5723C29.5112 32.5723 29.766 32.6779 29.954 32.8658C30.1419 33.0537 30.2474 33.3086 30.2474 33.5743V36.166V36.5768L30.6123 36.388L35.6203 33.7964L36.0509 33.5735L35.6197 33.352L28.8219 29.8592C28.8218 29.8591 28.8217 29.8591 28.8216 29.859C28.7046 29.7985 28.6006 29.7155 28.5155 29.6148C28.4305 29.514 28.3661 29.3974 28.3261 29.2718C28.286 29.1461 28.2711 29.0138 28.2823 28.8824C28.2934 28.7509 28.3303 28.623 28.3908 28.5058C28.4514 28.3887 28.5344 28.2846 28.6352 28.1995C28.736 28.1144 28.8525 28.05 28.9782 28.01C29.1039 27.97 29.2362 27.9551 29.3676 27.9662C29.499 27.9773 29.627 28.0142 29.7441 28.0748Z" fill="#EA7F1B" stroke="white" stroke-width="0.5"/>
</svg>
